<svg width="24" height="24" viewBox="0 0 24 24" fill="none" xmlns="http://www.w3.org/2000/svg">
<rect x="24" y="24" width="24" height="24" rx="6.63941" transform="rotate(-180 24 24)" fill="#FFEC70"/>
<path fill-rule="evenodd" clip-rule="evenodd" d="M9.17901 18.8047C9.29633 18.9327 9.44042 19 9.59726 19C9.81543 19 10.1099 18.7019 12.9183 15.6382C15.7958 12.4991 16 12.258 16 12C16 11.742 15.7958 11.5009 12.9183 8.36183C10.1099 5.29806 9.81543 5 9.59726 5C9.27665 5 9 5.30116 9 5.6502C9 5.8859 9.25842 6.19223 11.7878 8.955L14.5756 12L11.7878 15.045C9.25842 17.8078 9 18.1141 9 18.3498C9 18.5195 9.06205 18.6772 9.17901 18.8047Z" fill="#A73232"/>
</svg>
