<svg width="24" height="25" viewBox="0 0 24 25" fill="none" xmlns="http://www.w3.org/2000/svg">
<rect y="0.0408936" width="24" height="24" rx="6.63941" fill="#FFEC70"/>
<path fill-rule="evenodd" clip-rule="evenodd" d="M15.821 5.23618C15.7037 5.10819 15.5596 5.04089 15.4027 5.04089C15.1846 5.04089 14.8901 5.33895 12.0817 8.40272C9.20424 11.5417 9 11.7829 9 12.0409C9 12.2989 9.20424 12.54 12.0817 15.6791C14.8901 18.7428 15.1846 19.0409 15.4027 19.0409C15.7234 19.0409 16 18.7397 16 18.3907C16 18.155 15.7416 17.8487 13.2122 15.0859L10.4244 12.0409L13.2122 8.99589C15.7416 6.23312 16 5.92679 16 5.6911C16 5.52143 15.9379 5.36369 15.821 5.23618Z" fill="#A73232"/>
</svg>
